HIERARCHY
ROOT hip
{
	OFFSET 0.000000 0.000000 0.000000 
	CHANNELS 6 Xposition Yposition Zposition Xrotation Zrotation Yrotation
	JOINT abdomen
	{
		OFFSET 0.000000 3.402643 0.000000 
		CHANNELS 3 Xrotation Zrotation Yrotation
		JOINT chest
		{
			OFFSET 0.000000 8.438565 -0.680529 
			CHANNELS 3 Xrotation Zrotation Yrotation
			JOINT neck
			{
				OFFSET 0.000000 10.207942 -0.272212 
				CHANNELS 3 Xrotation Zrotation Yrotation
				JOINT head
				{
					OFFSET 0.000000 3.130431 0.000000 
					CHANNELS 3 Xrotation Zrotation Yrotation
					End Site
					{
						OFFSET 0.000000 3.130435 0.000000 
					}
				}
			}
			JOINT lCollar
			{
				OFFSET 3.470700 6.669187 -0.816635 
				CHANNELS 3 Yrotation Zrotation Xrotation
				JOINT lShldr
				{
					OFFSET 3.198488 0.000000 0.000000 
					CHANNELS 3 Zrotation Yrotation Xrotation
					JOINT lForeArm
					{
						OFFSET 10.139888 0.000000 0.000000 
						CHANNELS 3 Yrotation Zrotation Xrotation
						JOINT lHand
						{
							OFFSET 8.370511 0.000000 0.000000 
							CHANNELS 3 Zrotation Yrotation Xrotation
							End Site
							{
								OFFSET 4.083176 0.000000 0.000000 
							}
						}
					}
				}
			}
			JOINT rCollar
			{
				OFFSET -3.470700 6.669187 -0.816635 
				CHANNELS 3 Yrotation Zrotation Xrotation
				JOINT rShldr
				{
					OFFSET -3.198488 0.000000 0.000000 
					CHANNELS 3 Zrotation Yrotation Xrotation
					JOINT rForeArm
					{
						OFFSET -10.139888 0.000000 0.000000 
						CHANNELS 3 Yrotation Zrotation Xrotation
						JOINT rHand
						{
							OFFSET -8.370511 0.000000 0.000000 
							CHANNELS 3 Zrotation Yrotation Xrotation
							End Site
							{
								OFFSET -4.083176 0.000000 0.000000 
							}
						}
					}
				}
			}
		}
	}
	JOINT lThigh
	{
		OFFSET 5.308129 -1.633274 1.361059 
		CHANNELS 3 Xrotation Zrotation Yrotation
		JOINT lShin
		{
			OFFSET -2.041588 -20.007561 0.000000 
			CHANNELS 3 Xrotation Zrotation Yrotation
			JOINT lFoot
			{
				OFFSET 0.000000 -19.190928 -1.224953 
				CHANNELS 3 Xrotation Yrotation Zrotation
				End Site
				{
					OFFSET 0.000000 -2.449906 4.627600 
				}
			}
		}
	}
	JOINT rThigh
	{
		OFFSET -5.308129 -1.633274 1.361059 
		CHANNELS 3 Xrotation Zrotation Yrotation
		JOINT rShin
		{
			OFFSET 2.041588 -20.007561 0.000000 
			CHANNELS 3 Xrotation Zrotation Yrotation
			JOINT rFoot
			{
				OFFSET 0.000000 -19.190928 -1.224953 
				CHANNELS 3 Xrotation Yrotation Zrotation
				End Site
				{
					OFFSET 0.000000 -2.449906 4.627600 
				}
			}
		}
	}
}
MOTION
Frames: 19
Frame Time: 0.033333
1.946768 45.110188 -57.035316 5.087891 -2.822266 28.300301 23.056641 5.361328 -1.279297 -5.566407 -0.537109 -2.060547 -19.619139 -4.882813 -11.514503 7.587890 9.140625 -12.275390 1.845703 9.248047 0.369524 -102.802734 -52.500000 75.410156 -48.066406 -3.212891 -35.517033 5.292969 11.396484 0.665994 -7.373047 -3.300781 0.097656 79.111328 52.148441 23.181541 54.082031 3.134766 -32.100143 -16.113279 -19.111326 4.576882 -9.100630 9.568906 11.095854 37.332821 -0.920196 -2.640611 -28.597483 8.969170 -2.242927 -32.658463 -10.006107 -10.570151 41.066032 0.331978 2.420062 -10.755435 16.335804 10.388400 
1.923897 45.103035 -57.009624 5.087891 -2.822266 28.300301 23.056641 5.361328 -1.279297 -5.742188 -1.064453 -2.246275 -19.248047 -4.365234 -11.729259 7.236329 8.789063 -12.293429 1.835937 9.599608 0.361328 -102.236328 -52.412109 74.982498 -48.515625 -3.222656 -35.761719 5.693359 12.080078 0.810547 -7.031250 -2.753906 0.010235 78.808594 51.845707 23.249866 53.662109 2.978515 -31.933598 -16.220703 -18.388670 4.560547 -9.071960 9.354917 11.079158 37.184071 -0.925882 -2.431082 -28.592213 9.036084 -2.185088 -32.653511 -10.008698 -10.744482 41.066032 0.331977 2.420061 -10.727630 16.373634 10.337103 
1.886715 45.100918 -56.995792 5.097656 -2.998047 28.291229 23.066406 5.527343 -1.230469 -5.927735 -1.240234 -2.246094 -19.248045 -4.013672 -11.748865 7.236329 8.613282 -12.293459 2.021484 9.599608 0.332031 -102.226563 -52.441406 74.806709 -48.291019 -3.222656 -35.634762 5.136719 12.275390 0.675904 -7.207031 -2.402344 0.039472 78.847656 52.021488 23.593750 53.730473 3.076172 -32.061073 -16.376955 -18.203125 4.550781 -9.311651 9.621720 10.904287 37.184429 -0.925874 -2.421384 -28.748369 9.198680 -2.068718 -32.812614 -10.000277 -11.088826 41.085159 0.336646 2.432332 -10.548185 16.452839 10.365655 
1.845195 45.097755 -56.983593 5.263672 -2.988281 28.300274 23.066406 5.703125 -1.191406 -6.269531 -1.054688 -2.255859 -18.896484 -4.189453 -11.738281 6.884765 8.437500 -12.304689 1.660156 9.238281 0.400391 -102.138672 -52.128906 74.582138 -48.164063 -3.056641 -35.868622 4.560547 12.119141 0.498047 -7.207031 -2.753906 0.000469 78.916016 51.689453 23.789061 53.652340 3.125000 -31.826176 -16.308594 -18.251955 4.332879 -9.324019 9.645145 10.737720 37.333424 -0.926089 -2.623087 -28.683683 9.334425 -1.757174 -33.016254 -9.853169 -11.292081 41.232235 0.341765 2.421474 -10.268709 16.606819 10.399184 
1.802502 45.087902 -57.000355 5.449219 -3.173828 28.280708 22.890623 5.703125 -1.191406 -6.269531 -1.054688 -2.255859 -19.072266 -4.189453 -11.738994 6.884765 8.437500 -12.304689 1.660156 9.238281 0.400391 -101.884766 -52.285156 74.152435 -48.017578 -3.164063 -35.869144 4.394532 12.119141 0.548927 -7.382812 -2.753906 -0.009296 79.150391 52.011719 24.072266 53.593750 3.027344 -31.689455 -16.142578 -18.261719 4.355469 -9.634151 9.573609 10.732456 37.332821 -0.920182 -2.640606 -28.526281 9.284273 -2.026423 -33.343380 -10.006984 -11.228962 41.420452 0.465383 2.115242 -10.231122 16.856199 10.331841 
1.769191 45.082623 -57.056309 5.791016 -3.173828 28.300783 22.724609 5.742187 -1.356444 -6.103516 -1.240234 -2.431852 -19.609375 -4.179688 -11.562498 7.060547 8.437500 -12.303255 1.845703 9.072265 0.380859 -101.992188 -52.568359 74.707031 -48.066406 -3.212891 -35.517033 4.902344 11.757813 0.478516 -7.558594 -2.753906 -0.019531 79.394531 52.167969 24.394531 53.320313 2.910156 -30.947262 -15.859375 -17.792969 4.206000 -10.366733 9.808465 10.890022 37.710220 -0.920187 -2.485064 -28.641771 8.857945 -2.318654 -33.815151 -10.135130 -11.882236 41.392262 0.165979 2.540859 -9.718401 16.953506 9.726048 
1.712541 45.094349 -57.173828 5.966797 -3.349610 28.475992 22.900391 5.917970 -1.307587 -6.103516 -1.240234 -2.431852 -19.785156 -4.179688 -11.563210 7.060547 8.613282 -12.293460 1.845703 9.072265 0.380859 -101.826172 -52.773434 75.146484 -48.291019 -3.222656 -35.634762 5.468750 11.396483 0.654297 -7.724609 -2.949219 0.117690 79.687500 52.314453 24.695227 53.115234 3.037110 -30.234892 -15.976563 -17.080078 4.140625 -10.905606 10.357569 12.068675 38.234459 -1.121470 -2.538430 -29.081005 7.376567 -2.917796 -34.030769 -10.516569 -12.317011 41.392628 0.165970 2.531170 -9.097908 17.247337 9.706995 
1.669730 45.122150 -57.386951 6.152344 -3.173828 28.828129 23.261717 6.083984 -1.269531 -6.455078 -1.230469 -2.617398 -19.970705 -4.531250 -11.542970 7.236329 8.964844 -12.107853 1.845703 8.896484 0.389115 -101.865234 -52.949219 75.175781 -48.066406 -3.212891 -35.517033 5.468750 11.044922 0.656169 -7.900391 -3.125000 0.087891 79.775391 52.480469 24.871027 52.988281 2.978516 -29.863787 -16.279297 -16.533203 4.118315 -11.404881 10.652201 13.661326 38.932411 -0.867801 -2.500709 -29.803831 5.832192 -4.190738 -34.582527 -10.884738 -13.086978 41.242046 0.331942 2.418439 -8.344960 18.095303 9.987378 
1.628796 45.095757 -57.737759 6.494141 -2.998047 28.818577 23.779297 5.917969 -1.308594 -6.982422 -1.406250 -2.626953 -19.960938 -4.355469 -11.552733 7.236329 8.964844 -12.107853 1.845703 9.248047 0.369524 -102.177734 -53.193363 75.312500 -48.076176 -3.085938 -35.634762 5.458984 10.517579 0.654297 -7.900391 -3.300781 0.068359 79.726563 52.656250 24.851515 53.134766 3.027344 -29.756374 -16.914064 -15.781251 4.062500 -12.065971 10.764856 15.201086 40.340630 -0.878129 -2.236103 -30.459488 3.143754 -5.683353 -35.090279 -11.558502 -13.405123 41.242733 0.338362 2.401343 -7.157760 18.500393 9.524564 
1.611555 44.993832 -58.220287 7.197265 -2.822266 28.466797 24.121094 5.527344 -1.230469 -7.509766 -1.572266 -2.460938 -19.970705 -4.531250 -11.542970 7.236329 8.964844 -12.283634 2.021484 9.423828 0.341797 -102.705078 -53.378906 75.207008 -48.115238 -3.271485 -35.166016 5.283203 10.166015 0.664063 -7.900391 -3.652344 0.019531 79.658203 52.988281 24.648438 53.496094 2.958984 -29.893082 -17.236328 -15.585937 4.040347 -12.446819 10.657297 16.619528 42.104256 -0.888258 -2.670050 -30.975912 1.698852 -6.538246 -36.646217 -12.439127 -13.469445 41.577282 0.175795 2.562293 -5.932826 18.818027 9.044710 
1.618123 44.808167 -58.782684 7.724609 -2.646484 27.773438 24.287109 5.312162 -1.112600 -7.685546 -1.572266 -2.119408 -20.156250 -4.697266 -11.357422 7.060547 8.789063 -12.117649 2.197266 9.423828 0.310901 -103.037109 -53.857422 75.039063 -48.310551 -3.222656 -34.814449 5.068360 10.527344 0.470536 -7.900391 -3.818360 -0.009766 79.736328 53.476566 24.277346 53.691406 2.968750 -30.508320 -17.656248 -15.683593 4.167283 -12.274245 10.818432 16.962053 44.388008 -0.898514 -2.793061 -30.727194 0.307142 -6.909123 -38.587883 -12.965657 -12.860221 42.100121 0.524021 2.508426 -4.794222 19.405411 8.715743 
1.630204 44.520454 -59.416412 8.261718 -2.646484 26.884764 24.462891 5.273438 -0.936588 -7.861328 -1.572266 -1.943627 -19.990234 -5.039062 -11.153202 6.884765 8.789062 -11.953124 2.343750 9.609375 0.449219 -103.310547 -54.208984 74.513557 -48.740234 -3.046875 -34.716278 5.283204 10.517579 0.665847 -7.890625 -3.847657 0.166016 79.863281 54.316406 24.216915 53.750000 3.066406 -31.113281 -17.597658 -16.347656 4.394531 -11.541790 11.081852 16.978983 47.033352 -0.557399 -2.618320 -30.291489 -0.372558 -7.564085 -40.561531 -13.346926 -12.330947 42.819637 0.331939 2.316767 -4.161902 20.482271 8.686978 
1.661050 44.116276 -60.116627 8.789063 -2.646484 26.181190 24.462891 5.390625 -0.721739 -8.212891 -1.748047 -1.777344 -19.658203 -5.185547 -10.791899 6.884765 8.789062 -11.601563 2.705078 9.609376 0.388995 -103.300781 -54.238281 74.337776 -49.238281 -3.125000 -34.618607 5.800781 10.332031 0.625000 -8.066406 -3.847656 0.156250 80.419922 54.941406 24.304871 53.896484 2.978516 -31.123049 -17.646484 -17.490234 4.772456 -9.791982 11.780382 16.679283 48.771961 -0.743351 -2.960524 -30.263346 -0.845752 -7.497865 -43.006409 -13.876570 -12.179206 44.205853 0.165964 2.317741 -3.272051 21.183060 8.586778 
1.691898 43.592228 -60.871143 8.964844 -2.646484 25.830078 24.462891 5.390625 -0.721739 -8.564453 -1.562500 -1.787375 -18.984375 -5.341797 -10.429687 6.533203 8.789063 -11.268038 2.880860 9.257813 0.369523 -102.998047 -54.218750 73.896484 -49.375000 -3.154297 -34.492188 6.533203 9.785156 0.763378 -8.242188 -4.023438 0.117873 80.849609 55.410156 24.236553 53.896484 2.978516 -31.123049 -17.236328 -18.583982 4.869936 -7.704248 12.487420 16.260637 50.363087 -0.560578 -2.992208 -30.012794 -1.193177 -7.935297 -45.501007 -14.410496 -11.675235 46.150887 -0.009903 2.509866 -2.629986 21.766960 8.114541 
1.737171 42.998272 -61.689362 8.789063 -2.646484 25.829630 24.472654 5.605469 -0.849609 -8.740233 -1.738281 -2.148734 -18.300781 -5.136719 -10.078122 6.533203 8.789063 -11.092257 2.880859 9.081955 0.379325 -102.656250 -54.003906 73.566322 -49.667973 -3.085938 -34.394531 6.708985 9.609376 0.753585 -8.066405 -4.199219 0.108137 81.523438 55.683594 24.296877 53.623051 2.871094 -30.850100 -16.943357 -19.140625 4.889376 -5.282019 13.409015 15.869417 51.580856 -0.394726 -2.794816 -29.444731 -2.437083 -8.806543 -47.763954 -15.098131 -11.076267 47.909756 0.159514 2.853124 -2.247175 21.806047 8.047338 
1.757932 42.421677 -62.599995 8.437500 -2.646484 26.005407 24.316408 6.210938 -1.053631 -8.916017 -1.914063 -2.500000 -16.904299 -4.775391 -9.921876 6.181641 8.613282 -10.761719 3.066406 8.906251 0.371094 -102.041016 -53.730469 73.125000 -49.687504 -3.134765 -34.863285 7.089843 9.414062 0.898438 -7.714845 -4.189453 0.136719 81.972656 55.468750 24.236559 52.968750 2.988281 -30.332029 -16.367188 -19.228518 4.772175 -2.500552 14.665814 16.047312 51.959484 -0.154578 -3.031694 -28.911255 -3.369463 -9.234339 -49.353596 -15.643907 -10.052125 49.135956 -0.019538 2.658002 -1.837119 21.455730 8.012319 
1.779395 41.956867 -63.653599 7.724608 -2.822266 26.367188 24.326172 6.464844 -1.347656 -9.443359 -1.728516 -2.861328 -14.628906 -4.414063 -9.776141 5.468750 8.603515 -10.615236 2.734375 8.544922 0.263672 -101.074219 -52.832031 72.501984 -49.707031 -3.173828 -35.331490 7.441407 9.580078 0.880531 -7.177734 -4.365234 0.147228 82.480469 54.746094 24.705242 52.392578 2.910156 -30.166016 -16.250000 -18.740234 4.560547 -0.226549 15.343205 16.080809 51.061790 -0.330290 -3.059080 -27.167662 -5.302385 -10.004794 -50.367859 -15.623766 -9.094915 48.944397 -0.019655 2.814092 -0.437227 20.717619 7.416982 
1.798044 41.669621 -64.872818 7.197265 -2.988281 26.708984 23.984373 6.562500 -1.689453 -9.619140 -1.552734 -3.222921 -12.363282 -3.691406 -9.472655 4.589844 8.251954 -10.312501 2.734375 8.017578 0.292969 -99.902344 -51.816402 72.257950 -50.234375 -3.144531 -35.819775 7.822267 9.560547 1.027014 -7.529296 -4.365234 0.127696 83.691406 54.130859 26.814556 51.494141 3.027344 -30.469265 -16.269533 -17.724611 4.335938 1.373866 15.422196 15.839649 48.952522 -0.503263 -3.050206 -26.563965 -6.540835 -10.807489 -50.939865 -15.455956 -7.231378 47.389210 0.341806 2.720824 1.528930 19.314819 6.686116 
1.807311 41.568283 -66.209679 6.679688 -3.349610 27.401772 23.642576 6.699219 -2.197266 -9.785156 -1.025391 -3.574394 -9.746094 -2.958984 -9.170505 3.349610 7.714845 -10.018220 3.095703 7.490235 0.273437 -98.476563 -50.380859 71.887009 -51.416019 -3.232422 -36.582031 8.525391 9.726563 0.987978 -8.398438 -4.570313 0.205078 85.146484 53.125004 29.560547 51.054688 3.017578 -30.683598 -16.982420 -17.275389 4.440461 1.891353 15.050585 15.854416 46.344227 -0.494874 -2.732922 -29.042549 -6.902805 -11.320392 -50.862579 -15.095293 -4.792413 44.739201 0.175783 2.694838 3.066947 17.046364 5.933680 
